<?xml version="1.0" encoding="UTF-8" standalone="no"?>
<!DOCTYPE svg PUBLIC "-//W3C//DTD SVG 1.1//EN" "http://www.w3.org/Graphics/SVG/1.1/DTD/svg11.dtd">
<svg xmlns:xl="http://www.w3.org/1999/xlink" xmlns:dc="http://purl.org/dc/elements/1.1/" version="1.1" xmlns="http://www.w3.org/2000/svg" viewBox="-141 70 75 75" width="75" height="75">
  <defs/>
  <metadata> Produced by OmniGraffle 7.17.4\n2020-09-17 14:17:20 +0000</metadata>
  <g id="Meter_Selected" stroke-opacity="1" fill-opacity="1" stroke-dasharray="none" fill="none" stroke="none">
    <title>Meter Selected</title>
    <g id="Meter_Selected_Layer_1">
      <title>Layer 1</title>
      <g id="Graphic_10">
        <circle cx="-103.5" cy="107.5" r="37.5000599213211" fill="white"/>
        <circle cx="-103.5" cy="107.5" r="37.5000599213211" stroke="#6f2683" stroke-linecap="round" stroke-linejoin="round" stroke-width="1"/>
      </g>
      <g id="Group_15">
        <g id="Graphic_23">
          <path d="M -123.5 86.5 L -123.5 96.5 C -123.5 97.05 -123.05 97.5 -122.5 97.5 L -113.5 97.5 L -113.5 85.5 L -122.5 85.5 C -123.05 85.5 -123.5 85.95 -123.5 86.5 Z M -119.5 87.5 L -117.5 87.5 L -117.5 95.5 L -119.5 95.5 Z" fill="#660e7a"/>
        </g>
        <g id="Graphic_22">
          <circle cx="-116.5" cy="124.5" r="1.0000015979019" fill="#660e7a"/>
        </g>
        <g id="Graphic_21">
          <circle cx="-106.5" cy="124.5" r="1.00000159790191" fill="#660e7a"/>
        </g>
        <g id="Graphic_20">
          <path d="M -111.5 86.5 L -111.5 97.5 L -101.5 97.5 L -101.5 85.5 L -111.5 85.5 Z M -107.5 87.5 L -105.5 87.5 L -105.5 95.5 L -107.5 95.5 Z" fill="#660e7a"/>
        </g>
        <g id="Graphic_19">
          <path d="M -90.5 85.5 L -99.5 85.5 L -99.5 97.5 L -90.5 97.5 C -89.95 97.5 -89.5 97.05 -89.5 96.5 L -89.5 86.5 C -89.5 85.95 -89.95 85.5 -90.5 85.5 Z M -93.5 95.5 L -95.5 95.5 L -95.5 87.5 L -93.5 87.5 Z" fill="#660e7a"/>
        </g>
        <g id="Graphic_18">
          <path d="M -86.8125 79.5 L -126.1875 79.5 C -126.9 79.5 -127.5 79.9625 -127.5 80.5 L -127.5 134.5 C -127.5 135.0375 -126.9 135.5 -126.1875 135.5 L -86.825 135.5 C -86.1125 135.5 -85.5125 135.0375 -85.5125 134.5 L -85.5125 80.5 C -85.5 79.9625 -86.1 79.5 -86.8125 79.5 Z M -113.5 131.5 L -119.5 131.5 L -119.5 129.5 L -113.5 129.5 Z M -116.5 127.5 C -118.1625 127.5 -119.5 126.1625 -119.5 124.5 C -119.5 122.8375 -118.1625 121.5 -116.5 121.5 C -114.8375 121.5 -113.5 122.8375 -113.5 124.5 C -113.5 126.15 -114.85 127.5 -116.5 127.5 Z M -98.0125 111.0125 L -99.425 112.425 C -103.325 108.525 -109.6625 108.525 -113.5625 112.425 L -114.975 111.0125 C -110.3 106.325 -102.7 106.325 -98.0125 111.0125 Z M -101.5 104.5 L -101.5 102.5 L -95.5 102.5 L -95.5 104.5 Z M -103.5 131.5 L -109.5 131.5 L -109.5 129.5 L -103.5 129.5 Z M -106.5 127.5 C -108.1625 127.5 -109.5 126.1625 -109.5 124.5 C -109.5 122.8375 -108.1625 121.5 -106.5 121.5 C -104.8375 121.5 -103.5 122.8375 -103.5 124.5 C -103.5 126.15 -104.85 127.5 -106.5 127.5 Z M -109.325 116.675 C -107.7625 115.1125 -105.225 115.1125 -103.6625 116.675 L -105.075 118.0875 C -105.85 117.3125 -107.125 117.3125 -107.9 118.0875 Z M -102.2625 115.2625 C -104.6 112.925 -108.4 112.925 -110.75 115.2625 L -112.1625 113.85 C -109.0375 110.725 -103.975 110.725 -100.85 113.85 Z M -93.5 131.5 L -99.5 131.5 L -99.5 129.5 L -93.5 129.5 Z M -96.5 127.5 C -98.1625 127.5 -99.5 126.1625 -99.5 124.5 C -99.5 122.8375 -98.1625 121.5 -96.5 121.5 C -94.8375 121.5 -93.5 122.8375 -93.5 124.5 C -93.5 126.15 -94.85 127.5 -96.5 127.5 Z M -87.5 104.5 L -93.5 104.5 L -93.5 102.5 L -87.5 102.5 Z M -87.5 96.5 C -87.5 98.15 -88.85 99.5 -90.5 99.5 L -122.5 99.5 C -124.15 99.5 -125.5 98.15 -125.5 96.5 L -125.5 86.5 C -125.5 84.85 -124.15 83.5 -122.5 83.5 L -90.5 83.5 C -88.85 83.5 -87.5 84.85 -87.5 86.5 Z" fill="#660e7a"/>
        </g>
        <g id="Graphic_17">
          <path d="M -80.3 79.5 L -83.6875 79.5 C -83.5625 79.8125 -83.5 80.1625 -83.5 80.5 L -83.5 134.5 C -83.5 134.8375 -83.5625 135.1875 -83.6875 135.5 L -80.3 135.5 C -79.8625 135.5 -79.5 135.0375 -79.5 134.5 L -79.5 80.5 C -79.5 79.9625 -79.8625 79.5 -80.3 79.5 Z" fill="#660e7a"/>
        </g>
        <g id="Graphic_16">
          <circle cx="-96.5" cy="124.5" r="1.00000159790191" fill="#660e7a"/>
        </g>
      </g>
    </g>
  </g>
</svg>
