<?xml version="1.0" encoding="UTF-8" standalone="no"?>
<!DOCTYPE svg PUBLIC "-//W3C//DTD SVG 1.1//EN" "http://www.w3.org/Graphics/SVG/1.1/DTD/svg11.dtd">
<svg xmlns:dc="http://purl.org/dc/elements/1.1/" version="1.1" xmlns:xl="http://www.w3.org/1999/xlink" xmlns="http://www.w3.org/2000/svg" viewBox="-141 70 75 75" width="75" height="75">
  <defs/>
  <metadata> Produced by OmniGraffle 7.17.4\n2020-09-03 13:08:34 +0000</metadata>
  <g id="Transformer_Selected" fill="none" stroke="none" stroke-opacity="1" stroke-dasharray="none" fill-opacity="1">
    <title>Transformer Selected</title>
    <g id="Transformer_Selected_Layer_1">
      <title>Layer 1</title>
      <g id="Graphic_22">
        <circle cx="-103.5" cy="107.5" r="37.5000599213211" fill="white"/>
        <circle cx="-103.5" cy="107.5" r="37.5000599213211" stroke="#6f2683" stroke-linecap="round" stroke-linejoin="round" stroke-width="1"/>
      </g>
      <g id="Group_38">
        <g id="Group_47">
          <g id="Graphic_48">
            <path d="M -122.17841 101.38554 L -84.83395 101.38554 C -84.35394 101.38554 -83.87393 101.00154 -83.87393 100.42553 L -83.87393 95.91347 C -83.87393 95.52947 -84.16194 95.14546 -84.54594 94.95346 L -103.26618 89.09739 C -103.45818 89.00139 -103.65018 89.00139 -103.84218 89.09739 L -122.46641 95.04946 C -122.85042 95.14546 -123.13842 95.52947 -123.13842 96.00948 L -123.13842 100.52153 C -123.13842 100.90554 -122.65842 101.38554 -122.17841 101.38554 Z" fill="#6f2683"/>
          </g>
        </g>
        <g id="Group_45">
          <g id="Graphic_46">
            <path d="M -121.1224 85.44934 L -119.77838 84.96934 L -118.62637 88.71338 L -120.06638 89.19339 C -120.54639 89.38539 -120.8344 89.8654 -120.64239 90.44141 C -120.45039 91.01741 -119.87438 91.20942 -119.39438 91.01741 L -117.95436 90.53741 L -117.66635 91.49742 L -111.23427 89.48139 L -111.52228 88.52138 L -110.17826 88.13738 C -109.69826 87.94538 -109.41025 87.46537 -109.50625 86.88936 C -109.69826 86.40936 -110.17826 86.12135 -110.75427 86.21735 L -112.09828 86.69736 L -113.2503 82.95331 L -111.90628 82.56931 C -111.42628 82.37731 -111.13827 81.8973 -111.23427 81.32129 C -111.42628 80.84129 -111.90628 80.55328 -112.48229 80.64928 L -113.8263 81.12929 L -114.97832 77.481245 C -115.17032 77.00124 -115.65033 76.71324 -116.22634 76.80924 L -120.8344 78.249255 C -121.1224 78.34526 -121.3144 78.53726 -121.4104 78.72926 C -121.5064 78.92126 -121.5064 79.20927 -121.5064 79.49727 L -120.35439 83.24132 L -121.6984 83.62532 C -122.17841 83.81732 -122.46641 84.29733 -122.37041 84.87334 C -122.17841 85.35334 -121.6984 85.64135 -121.1224 85.44934 Z" fill="#6f2683"/>
          </g>
        </g>
        <g id="Group_43">
          <g id="Graphic_44">
            <path d="M -96.8341 88.13738 L -95.39408 88.52138 L -95.68208 89.48139 L -89.25 91.49742 L -88.962 90.53741 L -87.61798 91.01741 C -87.23398 91.20942 -86.56197 90.92141 -86.36997 90.44141 C -86.17796 89.9614 -86.46597 89.38539 -87.04197 89.19339 L -88.48199 88.80939 L -87.32998 85.06534 L -85.88996 85.54535 C -85.31395 85.73735 -84.83395 85.35334 -84.64194 84.87334 C -84.44994 84.39333 -84.73795 83.81732 -85.31395 83.62532 L -86.65797 83.24132 L -85.50595 79.49727 C -85.40995 79.20927 -85.50595 79.01726 -85.60196 78.72926 C -85.69796 78.53726 -85.88996 78.34526 -86.17796 78.249255 L -90.69002 76.80924 C -91.17002 76.617235 -91.74603 76.90524 -91.93803 77.481245 L -93.09005 81.22529 L -94.43407 80.74529 C -94.91407 80.55328 -95.49008 80.84129 -95.68208 81.41729 C -95.87408 81.8973 -95.58608 82.47331 -95.01007 82.66531 L -93.57005 83.04931 L -94.81807 86.69736 L -96.25809 86.31336 C -96.73809 86.12135 -97.3141 86.40936 -97.5061 86.98536 C -97.6021 87.46537 -97.3141 87.94538 -96.8341 88.13738 Z" fill="#6f2683"/>
          </g>
        </g>
        <g id="Group_41">
          <g id="Graphic_42">
            <path d="M -103.45818 132.48993 C -98.37011 132.48993 -94.24206 128.36188 -94.24206 123.27381 C -94.24206 118.18575 -98.37011 114.0577 -103.45818 114.0577 C -108.54624 114.0577 -112.67429 118.18575 -112.67429 123.27381 C -112.67429 128.36188 -108.54624 132.48993 -103.45818 132.48993 Z M -107.01022 122.98581 L -103.26618 116.93774 C -102.97817 116.45773 -102.40216 116.36173 -101.92216 116.64973 C -101.44215 116.93774 -101.34615 117.51374 -101.63415 117.99375 L -104.41819 122.5058 L -100.57814 122.5058 C -100.19414 122.5058 -99.90613 122.6978 -99.71413 122.98581 C -99.52213 123.27381 -99.52213 123.65782 -99.71413 123.94582 L -102.88217 129.51389 C -103.17017 129.9939 -103.74618 130.0899 -104.22619 129.8979 C -104.70619 129.6099 -104.8982 129.03389 -104.61019 128.55388 L -102.30616 124.42583 L -106.24221 124.42583 C -106.62622 124.42583 -106.91422 124.23383 -107.10622 123.94582 C -107.20222 123.65782 -107.20222 123.27381 -107.01022 122.98581 Z" fill="#6f2683"/>
          </g>
        </g>
        <g id="Group_39">
          <g id="Graphic_40">
            <path d="M -83.10592 136.32998 L -85.50595 136.32998 L -85.50595 103.30557 L -121.4104 103.30557 L -121.4104 136.32998 L -123.81043 136.32998 C -124.38644 136.32998 -124.77044 136.71398 -124.77044 137.28999 C -124.77044 137.866 -124.38644 138.25 -123.81043 138.25 L -83.20193 138.25 C -82.62592 138.25 -82.24191 137.866 -82.24191 137.28999 C -82.14591 136.71398 -82.62592 136.32998 -83.10592 136.32998 Z M -93.76206 106.66561 L -92.80205 106.66561 C -92.22604 106.66561 -91.84203 107.14561 -91.84203 107.62562 C -91.84203 108.20163 -92.22604 108.58563 -92.80205 108.58563 L -93.76206 108.58563 C -94.33806 108.58563 -94.72207 108.20163 -94.72207 107.62562 C -94.72207 107.14561 -94.33806 106.66561 -93.76206 106.66561 Z M -103.93818 106.66561 L -102.97817 106.66561 C -102.40216 106.66561 -102.01816 107.14561 -102.01816 107.62562 C -102.01816 108.20163 -102.40216 108.58563 -102.97817 108.58563 L -103.93818 108.58563 C -104.41819 108.58563 -104.8982 108.20163 -104.8982 107.62562 C -104.8982 107.14561 -104.51419 106.66561 -103.93818 106.66561 Z M -103.45818 112.13768 C -97.3141 112.13768 -92.32204 117.12974 -92.32204 123.27381 C -92.32204 129.41789 -97.3141 134.40995 -103.45818 134.40995 C -109.60225 134.40995 -114.59432 129.41789 -114.59432 123.27381 C -114.59432 117.12974 -109.60225 112.13768 -103.45818 112.13768 Z M -114.11431 106.66561 L -113.1543 106.66561 C -112.67429 106.66561 -112.19429 107.14561 -112.19429 107.62562 C -112.19429 108.20163 -112.67429 108.58563 -113.1543 108.58563 L -114.11431 108.58563 C -114.59432 108.58563 -115.07432 108.20163 -115.07432 107.62562 C -115.07432 107.14561 -114.59432 106.66561 -114.11431 106.66561 Z" fill="#6f2683"/>
          </g>
        </g>
      </g>
    </g>
  </g>
</svg>
