<?xml version="1.0" encoding="UTF-8" standalone="no"?>
<!DOCTYPE svg PUBLIC "-//W3C//DTD SVG 1.1//EN" "http://www.w3.org/Graphics/SVG/1.1/DTD/svg11.dtd">
<svg xmlns:xl="http://www.w3.org/1999/xlink" xmlns:dc="http://purl.org/dc/elements/1.1/" xmlns="http://www.w3.org/2000/svg" version="1.1" viewBox="-141 70 32 32" width="32" height="32">
  <defs/>
  <metadata> Produced by OmniGraffle 7.17.4\n2020-09-14 09:58:48 +0000</metadata>
  <g id="Add_Transformer" stroke="none" stroke-opacity="1" stroke-dasharray="none" fill-opacity="1" fill="none">
    <title>Add Transformer</title>
    <g id="Add_Transformer_Layer_1">
      <title>Layer 1</title>
      <g id="Group_38">
        <g id="Group_47">
          <g id="Graphic_48">
            <path d="M -134.11142 83.01734 L -115.89461 83.01734 C -115.66046 83.01734 -115.42631 82.83002 -115.42631 82.54904 L -115.42631 80.34804 C -115.42631 80.16072 -115.5668 79.9734 -115.75412 79.87974 L -124.88594 77.02312 C -124.9796 76.97629 -125.07326 76.97629 -125.16692 77.02312 L -134.25191 79.92657 C -134.43923 79.9734 -134.57972 80.16072 -134.57972 80.39487 L -134.57972 82.59587 C -134.57972 82.78319 -134.34557 83.01734 -134.11142 83.01734 Z" fill="white"/>
          </g>
        </g>
        <g id="Group_45">
          <g id="Graphic_46">
            <path d="M -133.59629 75.24358 L -132.94067 75.00943 L -132.37872 76.8358 L -133.08116 77.06995 C -133.31531 77.16361 -133.4558 77.39776 -133.36214 77.678735 C -133.26848 77.95971 -132.9875 78.05337 -132.75335 77.95971 L -132.0509 77.725565 L -131.91042 78.19386 L -128.77282 77.21044 L -128.9133 76.74214 L -128.25769 76.55482 C -128.02354 76.46116 -127.88305 76.22701 -127.92988 75.94603 C -128.02354 75.71188 -128.25769 75.57139 -128.53867 75.61822 L -129.19429 75.85237 L -129.75624 74.02601 L -129.10063 73.83869 C -128.86648 73.74503 -128.72599 73.51088 -128.77282 73.2299 C -128.86648 72.99575 -129.10063 72.85526 -129.3816 72.90209 L -130.03722 73.13624 L -130.59918 71.356705 C -130.69284 71.12256 -130.92699 70.98207 -131.20797 71.0289 L -133.4558 71.73134 C -133.59629 71.77817 -133.68995 71.87183 -133.73678 71.96549 C -133.78361 72.05915 -133.78361 72.19964 -133.78361 72.34013 L -133.22165 74.1665 L -133.87727 74.353815 C -134.11142 74.447475 -134.25191 74.68162 -134.20508 74.9626 C -134.11142 75.19675 -133.87727 75.33724 -133.59629 75.24358 Z" fill="white"/>
          </g>
        </g>
        <g id="Group_43">
          <g id="Graphic_44">
            <path d="M -121.74834 76.55482 L -121.04589 76.74214 L -121.18638 77.21044 L -118.04878 78.19386 L -117.90829 77.725565 L -117.25267 77.95971 C -117.06535 78.05337 -116.73755 77.91288 -116.64389 77.678735 C -116.55023 77.44459 -116.69072 77.16361 -116.9717 77.06995 L -117.67414 76.88263 L -117.11218 75.05626 L -116.40974 75.29041 C -116.12876 75.38407 -115.89461 75.19675 -115.80095 74.9626 C -115.70729 74.72845 -115.84778 74.447475 -116.12876 74.353815 L -116.78438 74.1665 L -116.22242 72.34013 C -116.17559 72.19964 -116.22242 72.10598 -116.26925 71.96549 C -116.31608 71.87183 -116.40974 71.77817 -116.55023 71.73134 L -118.75123 71.0289 C -118.98538 70.93524 -119.26636 71.07573 -119.36002 71.356705 L -119.92198 73.18307 L -120.5776 72.94892 C -120.81174 72.85526 -121.09272 72.99575 -121.18638 73.27673 C -121.28004 73.51088 -121.13955 73.79186 -120.85857 73.88552 L -120.15612 74.07284 L -120.76491 75.85237 L -121.46736 75.66505 C -121.70151 75.57139 -121.98249 75.71188 -122.07615 75.99286 C -122.12298 76.22701 -121.98249 76.46116 -121.74834 76.55482 Z" fill="white"/>
          </g>
        </g>
        <g id="Group_41">
          <g id="Graphic_42">
            <path d="M -124.9796 98.19021 C -122.49762 98.19021 -120.48393 96.17653 -120.48393 93.69454 C -120.48393 91.21256 -122.49762 89.19888 -124.9796 89.19888 C -127.46158 89.19888 -129.47526 91.21256 -129.47526 93.69454 C -129.47526 96.17653 -127.46158 98.19021 -124.9796 98.19021 Z M -126.7123 93.55405 L -124.88594 90.60377 C -124.74545 90.36962 -124.46447 90.32279 -124.23032 90.46328 C -123.99617 90.60377 -123.94934 90.88475 -124.08983 91.1189 L -125.4479 93.3199 L -123.5747 93.3199 C -123.38738 93.3199 -123.2469 93.41356 -123.15323 93.55405 C -123.05957 93.69454 -123.05957 93.88186 -123.15323 94.02235 L -124.69862 96.73848 C -124.83911 96.97263 -125.12009 97.01946 -125.35424 96.9258 C -125.58839 96.78531 -125.68205 96.50433 -125.54156 96.27019 L -124.41764 94.2565 L -126.33766 94.2565 C -126.52498 94.2565 -126.66547 94.16284 -126.75913 94.02235 C -126.80596 93.88186 -126.80596 93.69454 -126.7123 93.55405 Z" fill="white"/>
          </g>
        </g>
        <g id="Group_39">
          <g id="Graphic_40">
            <path d="M -115.05167 100.0634 L -116.22242 100.0634 L -116.22242 83.95393 L -133.73678 83.95393 L -133.73678 100.0634 L -134.90753 100.0634 C -135.1885 100.0634 -135.37583 100.25072 -135.37583 100.5317 C -135.37583 100.81268 -135.1885 101 -134.90753 101 L -115.0985 101 C -114.81752 101 -114.6302 100.81268 -114.6302 100.5317 C -114.58337 100.25072 -114.81752 100.0634 -115.05167 100.0634 Z M -120.24978 85.59298 L -119.78149 85.59298 C -119.5005 85.59298 -119.31319 85.82713 -119.31319 86.06128 C -119.31319 86.34226 -119.5005 86.52958 -119.78149 86.52958 L -120.24978 86.52958 C -120.53076 86.52958 -120.71808 86.34226 -120.71808 86.06128 C -120.71808 85.82713 -120.53076 85.59298 -120.24978 85.59298 Z M -125.21375 85.59298 L -124.74545 85.59298 C -124.46447 85.59298 -124.27715 85.82713 -124.27715 86.06128 C -124.27715 86.34226 -124.46447 86.52958 -124.74545 86.52958 L -125.21375 86.52958 C -125.4479 86.52958 -125.68205 86.34226 -125.68205 86.06128 C -125.68205 85.82713 -125.49473 85.59298 -125.21375 85.59298 Z M -124.9796 88.26228 C -121.98249 88.26228 -119.54734 90.69743 -119.54734 93.69454 C -119.54734 96.69165 -121.98249 99.12681 -124.9796 99.12681 C -127.97671 99.12681 -130.41186 96.69165 -130.41186 93.69454 C -130.41186 90.69743 -127.97671 88.26228 -124.9796 88.26228 Z M -130.17771 85.59298 L -129.70941 85.59298 C -129.47526 85.59298 -129.24112 85.82713 -129.24112 86.06128 C -129.24112 86.34226 -129.47526 86.52958 -129.70941 86.52958 L -130.17771 86.52958 C -130.41186 86.52958 -130.64601 86.34226 -130.64601 86.06128 C -130.64601 85.82713 -130.41186 85.59298 -130.17771 85.59298 Z" fill="white"/>
          </g>
        </g>
      </g>
      <g id="Graphic_49">
        <path d="M -125 91.3344 L -119.6656 91.3344 L -119.6656 86 L -114.3344 86 L -114.3344 91.3344 L -109 91.3344 L -109 96.6656 L -114.3344 96.6656 L -114.3344 102 L -119.6656 102 L -119.6656 96.6656 L -125 96.6656 Z" fill="#68bc36"/>
      </g>
    </g>
  </g>
</svg>
