<?xml version="1.0" encoding="UTF-8" standalone="no"?>
<!DOCTYPE svg PUBLIC "-//W3C//DTD SVG 1.1//EN" "http://www.w3.org/Graphics/SVG/1.1/DTD/svg11.dtd">
<svg xmlns:xl="http://www.w3.org/1999/xlink" xmlns:dc="http://purl.org/dc/elements/1.1/" xmlns="http://www.w3.org/2000/svg" version="1.1" viewBox="-141 70 32 32" width="32" height="32">
  <defs/>
  <metadata> Produced by OmniGraffle 7.17.4\n2020-09-14 12:45:35 +0000</metadata>
  <g id="Del_Cable" stroke="none" stroke-opacity="1" stroke-dasharray="none" fill-opacity="1" fill="none">
    <title>Del Cable</title>
    <g id="Del_Cable_Layer_1">
      <title>Layer 1</title>
      <g id="Group_78">
        <g id="Graphic_85">
          <path d="M -126.3175 86.42019 C -126.3349 86.40883 -126.34609 86.38586 -126.3359 86.36394 L -125.05555 83.29393 L -126.81212 82.95249 C -126.88888 82.93757 -126.91561 82.84072 -126.85906 82.78283 C -126.85906 82.78283 -126.85906 82.78283 -126.85906 82.78283 L -123.54305 79.39755 C -124.92322 78.79988 -126.58743 79.06509 -127.71551 80.19318 C -129.19032 81.66799 -129.19032 84.05912 -127.71551 85.53393 C -127.30686 85.94258 -126.82786 86.23799 -126.3175 86.42018 Z M -126.29732 86.42732 C -124.97038 86.89251 -123.43555 86.59471 -122.37477 85.53393 C -120.89996 84.05912 -120.89996 81.66799 -122.37477 80.19318 C -122.69064 79.87731 -123.04855 79.62909 -123.43049 79.44852 L -124.67555 82.27681 L -122.84213 82.63319 C -122.76529 82.64813 -122.73858 82.7452 -122.7954 82.80306 L -126.2655 86.41207 C -126.27452 86.42387 -126.28605 86.42819 -126.29732 86.42732 Z" fill="white"/>
        </g>
        <g id="Graphic_84">
          <path d="M -132.8434 78.25717 L -136.6745 82.08827 C -138.51112 83.9249 -138.51112 86.90265 -136.6745 88.73928 C -134.83787 90.5759 -131.86012 90.5759 -130.0235 88.73928 L -126.1924 84.90817 L -127.966 83.13457 L -131.7971 86.96567 C -132.65419 87.82277 -134.0438 87.82277 -134.9009 86.96567 C -135.75799 86.10858 -135.75799 84.71896 -134.9009 83.86187 L -131.0698 80.03077 Z" fill="white"/>
        </g>
        <g id="Line_83">
          <line x1="-130.7071" y1="77.82991" x2="-128.03672" y2="75.15953" stroke="white" stroke-linecap="round" stroke-linejoin="round" stroke-width="1"/>
        </g>
        <g id="Graphic_82">
          <path d="M -133.16384 78.57761 L -131.56162 76.97539 L -129.78528 78.75172 L -131.38751 80.35394 Z" fill="white"/>
        </g>
        <g id="Graphic_81">
          <path d="M -117.1566 87.60761 L -113.3255 83.77651 C -111.48888 81.93988 -111.48888 78.96213 -113.3255 77.1255 C -115.16213 75.28888 -118.13988 75.28888 -119.9765 77.1255 L -123.8076 80.9566 L -122.034 82.7302 L -118.2029 78.8991 C -117.34581 78.04201 -115.9562 78.04201 -115.0991 78.8991 C -114.24201 79.75619 -114.24201 81.14581 -115.0991 82.0029 L -118.9302 85.83401 Z" fill="white"/>
        </g>
        <g id="Graphic_80">
          <path d="M -123.52598 90.42432 L -118.18523 85.08358 L -116.4089 86.85991 L -121.74965 92.20065 Z" fill="white"/>
        </g>
        <g id="Line_79">
          <line x1="-125.1962" y1="94.09486" x2="-122.52583" y2="91.42448" stroke="white" stroke-linecap="round" stroke-linejoin="round" stroke-width="1"/>
        </g>
      </g>
      <g id="Graphic_86">
        <rect x="-125" y="91.3335" width="16" height="5.333" fill="red"/>
      </g>
    </g>
  </g>
</svg>
