<?xml version="1.0" encoding="UTF-8" standalone="no"?>
<!DOCTYPE svg PUBLIC "-//W3C//DTD SVG 1.1//EN" "http://www.w3.org/Graphics/SVG/1.1/DTD/svg11.dtd">
<svg xmlns:xl="http://www.w3.org/1999/xlink" xmlns:dc="http://purl.org/dc/elements/1.1/" xmlns="http://www.w3.org/2000/svg" version="1.1" viewBox="-141 70 32 32" width="32" height="32">
  <defs/>
  <metadata> Produced by OmniGraffle 7.17.4\n2020-09-14 12:44:46 +0000</metadata>
  <g id="Del_Cabinet" stroke="none" stroke-opacity="1" stroke-dasharray="none" fill-opacity="1" fill="none">
    <title>Del Cabinet</title>
    <g id="Del_Cabinet_Layer_1">
      <title>Layer 1</title>
      <g id="Graphic_65">
        <path d="M -130.05375 100.12677 C -130.12283 100.08166 -130.16732 99.99043 -130.12685 99.90335 L -125.04136 87.70944 L -132.01836 86.35325 C -132.32325 86.29398 -132.42943 85.9093 -132.2048 85.67939 C -132.2048 85.67939 -132.2048 85.67939 -132.2048 85.67939 L -119.03378 72.23321 C -124.51573 69.859285 -131.12589 70.91268 -135.60659 75.39341 C -141.46448 81.25127 -141.46448 90.74873 -135.60659 96.60659 C -133.98346 98.22973 -132.08089 99.40312 -130.05374 100.12676 Z M -129.9736 100.15511 C -124.70305 102.00281 -118.60677 100.81997 -114.39341 96.60659 C -108.53552 90.74873 -108.53552 81.25127 -114.39341 75.39341 C -115.64804 74.13877 -117.06964 73.15285 -118.58667 72.43564 L -123.53201 83.6695 L -116.24976 85.08503 C -115.94451 85.14436 -115.83844 85.52989 -116.06412 85.75971 L -129.84723 100.09455 C -129.88305 100.14142 -129.92884 100.15855 -129.9736 100.15512 Z" fill="white"/>
      </g>
      <g id="Graphic_66">
        <rect x="-125" y="91.3335" width="16" height="5.333" fill="red"/>
      </g>
    </g>
  </g>
</svg>
