<?xml version="1.0" encoding="UTF-8" standalone="no"?>
<!DOCTYPE svg PUBLIC "-//W3C//DTD SVG 1.1//EN" "http://www.w3.org/Graphics/SVG/1.1/DTD/svg11.dtd">
<svg xmlns="http://www.w3.org/2000/svg" xmlns:xl="http://www.w3.org/1999/xlink" xmlns:dc="http://purl.org/dc/elements/1.1/" version="1.1" viewBox="871 749 32 32" width="32" height="32">
  <defs/>
  <metadata> Produced by OmniGraffle 7.17.5\n2020-09-29 10:45:55 +0000</metadata>
  <g id="Delete_all" fill="none" stroke-opacity="1" stroke-dasharray="none" fill-opacity="1" stroke="none">
    <title>Delete all</title>
    <g id="Delete_all_Layer_1">
      <title>Layer 1</title>
      <g id="Graphic_23">
        <path d="M 879.5 753 C 879.5 751.34314 880.8431 750 882.5 750 L 891.5 750 C 893.1569 750 894.5 751.34314 894.5 753 L 894.5 756 L 897.4846 756 C 897.4938 755.9999 897.5032 755.9999 897.5124 756 L 900.5 756 C 901.3284 756 902 756.6716 902 757.5 C 902 758.3284 901.3284 759 900.5 759 L 898.8966 759 L 897.5957 777.21375 C 897.4835 778.78365 896.1773 780 894.6034 780 L 879.3967 780 C 877.8228 780 876.5164 778.78365 876.4043 777.21375 L 875.1033 759 L 873.5 759 C 872.6716 759 872 758.3284 872 757.5 C 872 756.6716 872.6716 756 873.5 756 L 876.4876 756 C 876.4969 755.9999 876.5062 755.9999 876.5155 756 L 879.5 756 Z M 882.5 756 L 891.5 756 L 891.5 753 L 882.5 753 Z M 878.111 759 L 879.3967 777 L 894.6034 777 L 895.889 759 Z M 884 762 C 884.8284 762 885.5 762.67155 885.5 763.5 L 885.5 772.5 C 885.5 773.32845 884.8284 774 884 774 C 883.1716 774 882.5 773.32845 882.5 772.5 L 882.5 763.5 C 882.5 762.67155 883.1716 762 884 762 Z M 890 762 C 890.8284 762 891.5 762.67155 891.5 763.5 L 891.5 772.5 C 891.5 773.32845 890.8284 774 890 774 C 889.1716 774 888.5 773.32845 888.5 772.5 L 888.5 763.5 C 888.5 762.67155 889.1716 762 890 762 Z" fill="red"/>
      </g>
    </g>
  </g>
</svg>
