<?xml version="1.0" encoding="UTF-8" standalone="no"?>
<!DOCTYPE svg PUBLIC "-//W3C//DTD SVG 1.1//EN" "http://www.w3.org/Graphics/SVG/1.1/DTD/svg11.dtd">
<svg xmlns:xl="http://www.w3.org/1999/xlink" xmlns:dc="http://purl.org/dc/elements/1.1/" version="1.1" xmlns="http://www.w3.org/2000/svg" viewBox="-141 70 32 32" width="32" height="32">
  <defs/>
  <metadata> Produced by OmniGraffle 7.17.4\n2020-09-17 14:02:34 +0000</metadata>
  <g id="Del_SM" stroke-opacity="1" fill-opacity="1" stroke-dasharray="none" fill="none" stroke="none">
    <title>Del SM</title>
    <g id="Del_SM_Layer_1">
      <title>Layer 1</title>
      <g id="Group_60">
        <g id="Graphic_50">
          <path d="M -135.71429 74.75 L -135.71429 80.10714 C -135.71429 80.40179 -135.47321 80.64286 -135.17857 80.64286 L -130.35714 80.64286 L -130.35714 74.21429 L -135.17857 74.21429 C -135.47321 74.21429 -135.71429 74.45536 -135.71429 74.75 Z M -133.57143 75.28571 L -132.5 75.28571 L -132.5 79.57143 L -133.57143 79.57143 Z" fill="white"/>
        </g>
        <g id="Graphic_51">
          <circle cx="-131.96429" cy="95.10714" r="0.535715141733164" fill="white"/>
        </g>
        <g id="Graphic_52">
          <circle cx="-126.60714" cy="95.10714" r="0.535715141733153" fill="white"/>
        </g>
        <g id="Graphic_53">
          <path d="M -129.28571 74.75 L -129.28571 80.64286 L -123.92857 80.64286 L -123.92857 74.21429 L -129.28571 74.21429 Z M -127.14286 75.28571 L -126.07143 75.28571 L -126.07143 79.57143 L -127.14286 79.57143 Z" fill="white"/>
        </g>
        <g id="Graphic_54">
          <path d="M -118.03571 74.21429 L -122.85714 74.21429 L -122.85714 80.64286 L -118.03571 80.64286 C -117.74107 80.64286 -117.5 80.40179 -117.5 80.10714 L -117.5 74.75 C -117.5 74.45536 -117.74107 74.21429 -118.03571 74.21429 Z M -119.64286 79.57143 L -120.71429 79.57143 L -120.71429 75.28571 L -119.64286 75.28571 Z" fill="white"/>
        </g>
        <g id="Graphic_55">
          <path d="M -116.06027 71 L -137.15402 71 C -137.53571 71 -137.85714 71.24777 -137.85714 71.535714 L -137.85714 100.46429 C -137.85714 100.75223 -137.53571 101 -137.15402 101 L -116.06696 101 C -115.68527 101 -115.36384 100.75223 -115.36384 100.46429 L -115.36384 71.535714 C -115.35714 71.24777 -115.67857 71 -116.06027 71 Z M -130.35714 98.85714 L -133.57143 98.85714 L -133.57143 97.78571 L -130.35714 97.78571 Z M -131.96429 96.71429 C -132.85491 96.71429 -133.57143 95.99777 -133.57143 95.10714 C -133.57143 94.21652 -132.85491 93.5 -131.96429 93.5 C -131.07366 93.5 -130.35714 94.21652 -130.35714 95.10714 C -130.35714 95.99107 -131.08036 96.71429 -131.96429 96.71429 Z M -122.06027 87.8817 L -122.81696 88.63839 C -124.90625 86.54911 -128.30134 86.54911 -130.39062 88.63839 L -131.14732 87.8817 C -128.64286 85.37054 -124.57143 85.37054 -122.06027 87.8817 Z M -123.92857 84.39286 L -123.92857 83.32143 L -120.71429 83.32143 L -120.71429 84.39286 Z M -125 98.85714 L -128.21429 98.85714 L -128.21429 97.78571 L -125 97.78571 Z M -126.60714 96.71429 C -127.49777 96.71429 -128.21429 95.99777 -128.21429 95.10714 C -128.21429 94.21652 -127.49777 93.5 -126.60714 93.5 C -125.71652 93.5 -125 94.21652 -125 95.10714 C -125 95.99107 -125.72321 96.71429 -126.60714 96.71429 Z M -128.12054 90.91518 C -127.28348 90.07812 -125.9241 90.07812 -125.08705 90.91518 L -125.84375 91.67188 C -126.25893 91.2567 -126.94196 91.2567 -127.35714 91.67188 Z M -124.33705 90.15848 C -125.58929 88.90625 -127.625 88.90625 -128.88393 90.15848 L -129.64062 89.40179 C -127.96652 87.72768 -125.25446 87.72768 -123.58036 89.40179 Z M -119.64286 98.85714 L -122.85714 98.85714 L -122.85714 97.78571 L -119.64286 97.78571 Z M -121.25 96.71429 C -122.14062 96.71429 -122.85714 95.99777 -122.85714 95.10714 C -122.85714 94.21652 -122.14062 93.5 -121.25 93.5 C -120.35938 93.5 -119.64286 94.21652 -119.64286 95.10714 C -119.64286 95.99107 -120.36607 96.71429 -121.25 96.71429 Z M -116.42857 84.39286 L -119.64286 84.39286 L -119.64286 83.32143 L -116.42857 83.32143 Z M -116.42857 80.10714 C -116.42857 80.99107 -117.15179 81.71429 -118.03571 81.71429 L -135.17857 81.71429 C -136.0625 81.71429 -136.78571 80.99107 -136.78571 80.10714 L -136.78571 74.75 C -136.78571 73.86607 -136.0625 73.14286 -135.17857 73.14286 L -118.03571 73.14286 C -117.15179 73.14286 -116.42857 73.86607 -116.42857 74.75 Z" fill="white"/>
        </g>
        <g id="Graphic_56">
          <path d="M -112.57143 71 L -114.38616 71 C -114.3192 71.16741 -114.28571 71.35491 -114.28571 71.535714 L -114.28571 100.46429 C -114.28571 100.64509 -114.3192 100.83259 -114.38616 101 L -112.57143 101 C -112.33705 101 -112.14286 100.75223 -112.14286 100.46429 L -112.14286 71.535714 C -112.14286 71.24777 -112.33705 71 -112.57143 71 Z" fill="white"/>
        </g>
        <g id="Graphic_57">
          <circle cx="-121.25" cy="95.10714" r="0.535715141733153" fill="white"/>
        </g>
      </g>
      <g id="Graphic_61">
        <rect x="-125" y="91.3335" width="16" height="5.333" fill="red"/>
      </g>
    </g>
  </g>
</svg>
