<?xml version="1.0" encoding="UTF-8" standalone="no"?>
<!DOCTYPE svg PUBLIC "-//W3C//DTD SVG 1.1//EN" "http://www.w3.org/Graphics/SVG/1.1/DTD/svg11.dtd">
<svg xmlns="http://www.w3.org/2000/svg" xmlns:xl="http://www.w3.org/1999/xlink" xmlns:dc="http://purl.org/dc/elements/1.1/" version="1.1" viewBox="871 749 32 32" width="32" height="32">
  <defs/>
  <metadata> Produced by OmniGraffle 7.17.5\n2020-09-29 11:11:20 +0000</metadata>
  <g id="Download" fill="none" stroke-opacity="1" stroke-dasharray="none" fill-opacity="1" stroke="none">
    <title>Download</title>
    <g id="Download_Layer_1">
      <title>Layer 1</title>
      <g id="Graphic_3">
        <path d="M 887 750 C 887.8284 750 888.5 750.6716 888.5 751.5 L 888.5 767.3787 L 891.9394 763.93935 C 892.5251 763.3536 893.4749 763.3536 894.0606 763.93935 C 894.6464 764.5251 894.6464 765.4749 894.0606 766.06065 L 888.0606 772.06065 C 887.4749 772.6464 886.5251 772.6464 885.9394 772.06065 L 879.9393 766.06065 C 879.3536 765.4749 879.3536 764.5251 879.9393 763.93935 C 880.5251 763.3536 881.4749 763.3536 882.0607 763.93935 L 885.5 767.3787 L 885.5 751.5 C 885.5 750.6716 886.1716 750 887 750 Z M 876.5 772.5 C 877.3284 772.5 878 773.17155 878 774 L 878 777 L 896 777 L 896 774 C 896 773.17155 896.6716 772.5 897.5 772.5 C 898.3284 772.5 899 773.17155 899 774 L 899 777 C 899 778.6569 897.6569 780 896 780 L 878 780 C 876.3431 780 875 778.6569 875 777 L 875 774 C 875 773.17155 875.6716 772.5 876.5 772.5 Z" fill="white"/>
      </g>
    </g>
  </g>
</svg>
