<?xml version="1.0" encoding="UTF-8" standalone="no"?>
<!DOCTYPE svg PUBLIC "-//W3C//DTD SVG 1.1//EN" "http://www.w3.org/Graphics/SVG/1.1/DTD/svg11.dtd">
<svg xmlns:xl="http://www.w3.org/1999/xlink" xmlns:dc="http://purl.org/dc/elements/1.1/" xmlns="http://www.w3.org/2000/svg" version="1.1" viewBox="-141 70 32 32" width="32" height="32">
  <defs/>
  <metadata> Produced by OmniGraffle 7.17.4\n2020-09-14 14:27:38 +0000</metadata>
  <g id="Fit_grid" stroke="none" stroke-opacity="1" stroke-dasharray="none" fill-opacity="1" fill="none">
    <title>Fit grid</title>
    <g id="Fit_grid_Layer_1">
      <title>Layer 1</title>
      <g id="Group_116">
        <g id="Group_134">
          <g id="Group_143">
            <g id="Graphic_144">
              <path d="M -126.83461 81.39655 L -119.77725 81.39655 C -119.68654 81.39655 -119.59583 81.32398 -119.59583 81.21512 L -119.59583 80.36244 C -119.59583 80.28987 -119.65026 80.2173 -119.72283 80.18101 L -123.26058 79.07433 C -123.29686 79.05619 -123.33315 79.05619 -123.36943 79.07433 L -126.88904 80.19915 C -126.96161 80.2173 -127.01604 80.28987 -127.01604 80.38058 L -127.01604 81.23327 C -127.01604 81.30584 -126.92532 81.39655 -126.83461 81.39655 Z" fill="white"/>
            </g>
          </g>
          <g id="Group_141">
            <g id="Graphic_142">
              <path d="M -126.63505 78.38492 L -126.38105 78.29421 L -126.16335 79.00176 L -126.43548 79.09247 C -126.5262 79.12876 -126.58062 79.21947 -126.54434 79.32832 C -126.50805 79.43718 -126.3992 79.47346 -126.30849 79.43718 L -126.03635 79.34647 L -125.98192 79.52789 L -124.76639 79.1469 L -124.82082 78.96548 L -124.56682 78.89291 C -124.47611 78.85662 -124.42168 78.76591 -124.43983 78.65706 C -124.47611 78.56635 -124.56682 78.51192 -124.67568 78.53006 L -124.92967 78.62077 L -125.14738 77.91322 L -124.89339 77.84065 C -124.80267 77.80437 -124.74825 77.71366 -124.76639 77.6048 C -124.80267 77.51409 -124.89339 77.459665 -125.00224 77.47781 L -125.25623 77.56852 L -125.47394 76.87911 C -125.51022 76.7884 -125.60094 76.73397 -125.70979 76.752115 L -126.58062 77.02425 C -126.63505 77.04239 -126.67133 77.07868 -126.68947 77.11496 C -126.70762 77.15125 -126.70762 77.20567 -126.70762 77.2601 L -126.48991 77.96765 L -126.7439 78.04022 C -126.83461 78.0765 -126.88904 78.167215 -126.8709 78.27607 C -126.83461 78.36678 -126.7439 78.42121 -126.63505 78.38492 Z" fill="white"/>
            </g>
          </g>
          <g id="Group_139">
            <g id="Graphic_140">
              <path d="M -122.04504 78.89291 L -121.7729 78.96548 L -121.82733 79.1469 L -120.6118 79.52789 L -120.55737 79.34647 L -120.30338 79.43718 C -120.23081 79.47346 -120.10381 79.419035 -120.06753 79.32832 C -120.03124 79.23761 -120.08567 79.12876 -120.19453 79.09247 L -120.46666 79.0199 L -120.24895 78.31235 L -119.97682 78.40307 C -119.86796 78.43935 -119.77725 78.36678 -119.74097 78.27607 C -119.70468 78.18536 -119.75911 78.0765 -119.86796 78.04022 L -120.12196 77.96765 L -119.90425 77.2601 C -119.8861 77.20567 -119.90425 77.16939 -119.92239 77.11496 C -119.94053 77.07868 -119.97682 77.04239 -120.03124 77.02425 L -120.88393 76.752115 C -120.97465 76.71583 -121.0835 76.77026 -121.11978 76.87911 L -121.33749 77.58666 L -121.59148 77.49595 C -121.6822 77.459665 -121.79105 77.51409 -121.82733 77.62295 C -121.86362 77.71366 -121.80919 77.82251 -121.70034 77.8588 L -121.4282 77.931365 L -121.66405 78.62077 L -121.93619 78.5482 C -122.0269 78.51192 -122.13575 78.56635 -122.17204 78.6752 C -122.19018 78.76591 -122.13575 78.85662 -122.04504 78.89291 Z" fill="white"/>
            </g>
          </g>
          <g id="Group_137">
            <g id="Graphic_138">
              <path d="M -123.29686 87.27466 C -122.33532 87.27466 -121.5552 86.49454 -121.5552 85.533 C -121.5552 84.57145 -122.33532 83.79133 -123.29686 83.79133 C -124.2584 83.79133 -125.03852 84.57145 -125.03852 85.533 C -125.03852 86.49454 -124.2584 87.27466 -123.29686 87.27466 Z M -123.96813 85.47857 L -123.26058 84.3356 C -123.20615 84.24489 -123.0973 84.22675 -123.00658 84.28118 C -122.91587 84.3356 -122.89773 84.44446 -122.95216 84.53517 L -123.47828 85.38786 L -122.75259 85.38786 C -122.68002 85.38786 -122.6256 85.42414 -122.58931 85.47857 C -122.55303 85.533 -122.55303 85.60556 -122.58931 85.65999 L -123.18801 86.71225 C -123.24243 86.80296 -123.35129 86.8211 -123.442 86.78481 C -123.53271 86.73039 -123.569 86.62153 -123.51457 86.53082 L -123.07915 85.7507 L -123.82299 85.7507 C -123.89556 85.7507 -123.94998 85.71442 -123.98627 85.65999 C -124.00441 85.60556 -124.00441 85.533 -123.96813 85.47857 Z" fill="white"/>
            </g>
          </g>
          <g id="Group_135">
            <g id="Graphic_136">
              <path d="M -119.45069 88.00035 L -119.90425 88.00035 L -119.90425 81.75939 L -126.68947 81.75939 L -126.68947 88.00035 L -127.14303 88.00035 C -127.25189 88.00035 -127.32446 88.07292 -127.32446 88.18177 C -127.32446 88.29063 -127.25189 88.3632 -127.14303 88.3632 L -119.46883 88.3632 C -119.35998 88.3632 -119.28741 88.29063 -119.28741 88.18177 C -119.26927 88.07292 -119.35998 88.00035 -119.45069 88.00035 Z M -121.46449 82.39437 L -121.28306 82.39437 C -121.17421 82.39437 -121.10164 82.48509 -121.10164 82.5758 C -121.10164 82.68465 -121.17421 82.75722 -121.28306 82.75722 L -121.46449 82.75722 C -121.57334 82.75722 -121.64591 82.68465 -121.64591 82.5758 C -121.64591 82.48509 -121.57334 82.39437 -121.46449 82.39437 Z M -123.38757 82.39437 L -123.20615 82.39437 C -123.0973 82.39437 -123.02473 82.48509 -123.02473 82.5758 C -123.02473 82.68465 -123.0973 82.75722 -123.20615 82.75722 L -123.38757 82.75722 C -123.47828 82.75722 -123.569 82.68465 -123.569 82.5758 C -123.569 82.48509 -123.49643 82.39437 -123.38757 82.39437 Z M -123.29686 83.42849 C -122.13575 83.42849 -121.19235 84.37189 -121.19235 85.533 C -121.19235 86.6941 -122.13575 87.6375 -123.29686 87.6375 C -124.45797 87.6375 -125.40137 86.6941 -125.40137 85.533 C -125.40137 84.37189 -124.45797 83.42849 -123.29686 83.42849 Z M -125.31066 82.39437 L -125.12924 82.39437 C -125.03852 82.39437 -124.94781 82.48509 -124.94781 82.5758 C -124.94781 82.68465 -125.03852 82.75722 -125.12924 82.75722 L -125.31066 82.75722 C -125.40137 82.75722 -125.49208 82.68465 -125.49208 82.5758 C -125.49208 82.48509 -125.40137 82.39437 -125.31066 82.39437 Z" fill="white"/>
            </g>
          </g>
        </g>
        <g id="Graphic_133">
          <circle cx="-123.30476" cy="100.14044" r="1.85956715617812" fill="white"/>
        </g>
        <g id="Graphic_132">
          <circle cx="-116.94189" cy="94.40678" r="1.85956715617813" fill="white"/>
        </g>
        <g id="Graphic_131">
          <circle cx="-112.6029" cy="85.22518" r="1.85956715617813" fill="white"/>
        </g>
        <g id="Graphic_130">
          <circle cx="-137.3971" cy="81.31235" r="1.85956715617813" fill="white"/>
        </g>
        <g id="Graphic_129">
          <circle cx="-123.30476" cy="71.85956" r="1.85956715617812" fill="white"/>
        </g>
        <g id="Graphic_128">
          <circle cx="-131.8184" cy="85.2279" r="1.85956715617813" fill="white"/>
        </g>
        <g id="Graphic_127">
          <circle cx="-137.3971" cy="89.76059" r="1.85956715617813" fill="white"/>
        </g>
        <g id="Line_126">
          <line x1="-123.43609" y1="74.41646" x2="-123.43609" y2="78.44552" stroke="white" stroke-linecap="round" stroke-linejoin="round" stroke-width="1"/>
        </g>
        <g id="Line_125">
          <line x1="-124.84504" y1="89.13801" x2="-124.78266" y2="97.50605" stroke="white" stroke-linecap="round" stroke-linejoin="round" stroke-width="1"/>
        </g>
        <g id="Line_124">
          <line x1="-122.36562" y1="89.13801" x2="-122.36562" y2="93.16707" stroke="white" stroke-linecap="round" stroke-linejoin="round" stroke-width="1"/>
        </g>
        <g id="Line_123">
          <line x1="-122.36562" y1="93.16707" x2="-119.28507" y2="93.16707" stroke="white" stroke-linecap="round" stroke-linejoin="round" stroke-width="1"/>
        </g>
        <g id="Line_122">
          <line x1="-122.36562" y1="95.53027" x2="-119.28507" y2="95.53027" stroke="white" stroke-linecap="round" stroke-linejoin="round" stroke-width="1"/>
        </g>
        <g id="Line_121">
          <line x1="-122.36562" y1="95.56901" x2="-122.36562" y2="97.50605" stroke="white" stroke-linecap="round" stroke-linejoin="round" stroke-width="1"/>
        </g>
        <g id="Line_120">
          <line x1="-119.28507" y1="85.03148" x2="-115.08232" y2="85.03148" stroke="white" stroke-linecap="round" stroke-linejoin="round" stroke-width="1"/>
        </g>
        <g id="Line_119">
          <line x1="-129.0878" y1="85.03148" x2="-127.69313" y2="85.03148" stroke="white" stroke-linecap="round" stroke-linejoin="round" stroke-width="1"/>
        </g>
        <g id="Line_118">
          <line x1="-133.67797" y1="83.17191" x2="-135.07264" y2="82.49225" stroke="white" stroke-linecap="round" stroke-linejoin="round" stroke-width="1"/>
        </g>
        <g id="Line_117">
          <line x1="-133.67797" y1="87.16495" x2="-135.07264" y2="88.50138" stroke="white" stroke-linecap="round" stroke-linejoin="round" stroke-width="1"/>
        </g>
      </g>
      <g id="Group_147">
        <g id="Line_145">
          <line x1="-140.4" y1="70.6" x2="-140.4" y2="74.18636" stroke="white" stroke-linecap="round" stroke-linejoin="round" stroke-width="1"/>
        </g>
        <g id="Line_146">
          <line x1="-136.81364" y1="70.6" x2="-140.4" y2="70.6" stroke="white" stroke-linecap="round" stroke-linejoin="round" stroke-width="1"/>
        </g>
      </g>
      <g id="Group_148">
        <g id="Line_150">
          <line x1="-140.4" y1="101.38636" x2="-140.4" y2="97.8" stroke="white" stroke-linecap="round" stroke-linejoin="round" stroke-width="1"/>
        </g>
        <g id="Line_149">
          <line x1="-136.81364" y1="101.38636" x2="-140.4" y2="101.38636" stroke="white" stroke-linecap="round" stroke-linejoin="round" stroke-width="1"/>
        </g>
      </g>
      <g id="Group_151">
        <g id="Line_153">
          <line x1="-109.61364" y1="70.6" x2="-113.2" y2="70.6" stroke="white" stroke-linecap="round" stroke-linejoin="round" stroke-width="1"/>
        </g>
        <g id="Line_152">
          <line x1="-109.61364" y1="74.18636" x2="-109.61364" y2="70.6" stroke="white" stroke-linecap="round" stroke-linejoin="round" stroke-width="1"/>
        </g>
      </g>
      <g id="Group_154">
        <g id="Line_156">
          <line x1="-109.61364" y1="101.38636" x2="-113.2" y2="101.38636" stroke="white" stroke-linecap="round" stroke-linejoin="round" stroke-width="1"/>
        </g>
        <g id="Line_155">
          <line x1="-109.61364" y1="97.8" x2="-109.61364" y2="101.38636" stroke="white" stroke-linecap="round" stroke-linejoin="round" stroke-width="1"/>
        </g>
      </g>
    </g>
  </g>
</svg>
