<?xml version="1.0" encoding="UTF-8" standalone="no"?>
<!DOCTYPE svg PUBLIC "-//W3C//DTD SVG 1.1//EN" "http://www.w3.org/Graphics/SVG/1.1/DTD/svg11.dtd">
<svg xmlns="http://www.w3.org/2000/svg" xmlns:xl="http://www.w3.org/1999/xlink" xmlns:dc="http://purl.org/dc/elements/1.1/" version="1.1" viewBox="871 749 32 32" width="32" height="32">
  <defs/>
  <metadata> Produced by OmniGraffle 7.17.5\n2020-09-29 11:10:32 +0000</metadata>
  <g id="Eupload" fill="none" stroke-opacity="1" stroke-dasharray="none" fill-opacity="1" stroke="none">
    <title>Eupload</title>
    <g id="Eupload_Layer_1">
      <title>Layer 1</title>
      <g id="Graphic_2">
        <path d="M 885.9394 750.4393 C 886.5251 749.85356 887.4749 749.85356 888.0606 750.4393 L 894.0606 756.4393 C 894.6464 757.0251 894.6464 757.9749 894.0606 758.5607 C 893.4749 759.1464 892.5251 759.1464 891.9394 758.5607 L 888.5 755.1213 L 888.5 771 C 888.5 771.82845 887.8284 772.5 887 772.5 C 886.1716 772.5 885.5 771.82845 885.5 771 L 885.5 755.1213 L 882.0607 758.5607 C 881.4749 759.1464 880.5251 759.1464 879.9393 758.5607 C 879.3536 757.9749 879.3536 757.0251 879.9393 756.4393 Z M 876.5 772.5 C 877.3284 772.5 878 773.17155 878 774 L 878 777 L 896 777 L 896 774 C 896 773.17155 896.6716 772.5 897.5 772.5 C 898.3284 772.5 899 773.17155 899 774 L 899 777 C 899 778.6569 897.6569 780 896 780 L 878 780 C 876.3431 780 875 778.6569 875 777 L 875 774 C 875 773.17155 875.6716 772.5 876.5 772.5 Z" fill="white"/>
      </g>
    </g>
  </g>
</svg>
